<?xml version="1.0" standalone="no"?>
<!DOCTYPE svg PUBLIC "-//W3C//DTD SVG 20010904//EN"
 "http://www.w3.org/TR/2001/REC-SVG-20010904/DTD/svg10.dtd">
<svg version="1.0" xmlns="http://www.w3.org/2000/svg"
 width="300.000000pt" height="300.000000pt" viewBox="0 0 300.000000 300.000000"
 preserveAspectRatio="xMidYMid meet">
<metadata>
Created by potrace 1.11, written by Peter Selinger 2001-2013
</metadata>
<g transform="translate(0.000000,300.000000) scale(0.100000,-0.100000)"
fill="#000000" stroke="none">
<path d="M1347 2495 c-151 -52 -274 -230 -274 -396 -1 -30 6 -71 14 -92 l15
-37 -58 -60 c-33 -34 -61 -66 -63 -73 -2 -7 -7 -14 -11 -17 -17 -12 -80 -142
-100 -205 -29 -91 -36 -271 -15 -365 37 -159 127 -273 254 -322 81 -32 143
-42 258 -41 91 1 83 7 99 -82 3 -16 8 -41 11 -55 8 -33 13 -377 6 -413 -3 -15
-11 -27 -18 -27 -15 0 -41 -37 -46 -64 -3 -13 -25 -27 -68 -42 -95 -34 -124
-68 -136 -158 l-7 -46 416 0 c244 0 417 4 421 9 8 15 -33 116 -59 144 -33 35
-72 53 -146 68 -76 15 -90 23 -90 54 0 13 -5 25 -10 27 -6 2 -12 62 -14 148
-2 80 -5 145 -6 145 -3 0 -9 38 -14 90 -6 55 -10 80 -32 173 -15 63 -13 82 9
82 7 0 40 15 74 33 129 67 235 188 270 307 18 59 24 196 12 245 -5 17 -11 45
-14 63 -22 130 -138 335 -236 417 -47 40 -162 104 -187 105 -8 0 -10 5 -5 13
12 20 15 38 15 127 1 87 -17 144 -61 194 -43 49 -140 73 -204 51z"/>
</g>
</svg>
